<svg width="1024" height="1024" viewBox="0 0 1024 1024" fill="none" xmlns="http://www.w3.org/2000/svg">
  <rect width="1024" height="1024" rx="220" fill="url(#paint0_linear)"/>
  <g filter="url(#filter0_d)">
    <path d="M720 380H304C277.49 380 256 401.49 256 428V740C256 766.51 277.49 788 304 788H720C746.51 788 768 766.51 768 740V428C768 401.49 746.51 380 720 380Z" fill="white"/>
    <path d="M624 380V316C624 289.49 602.51 268 576 268H448C421.49 268 400 289.49 400 316V380" stroke="white" stroke-width="48" stroke-linecap="round" stroke-linejoin="round"/>
    <path d="M256 500C256 500 384 556 512 556C640 556 768 500 768 500" stroke="#2563EB" stroke-width="32" stroke-linecap="round" stroke-linejoin="round"/>
  </g>
  <defs>
    <filter id="filter0_d" x="200" y="220" width="624" height="624" filterUnits="userSpaceOnUse" color-interpolation-filters="sRGB">
      <feFlood flood-opacity="0" result="BackgroundImageFix"/>
      <feColorMatrix in="SourceAlpha" type="matrix" values="0 0 0 0 0 0 0 0 0 0 0 0 0 0 0 0 0 0 127 0" result="hardAlpha"/>
      <feOffset dy="20"/>
      <feGaussianBlur stdDeviation="20"/>
      <feComposite in2="hardAlpha" operator="out"/>
      <feColorMatrix type="matrix" values="0 0 0 0 0 0 0 0 0 0 0 0 0 0 0 0 0 0 0.1 0"/>
      <feBlend mode="normal" in2="BackgroundImageFix" result="effect1_dropShadow"/>
      <feBlend mode="normal" in="SourceGraphic" in2="effect1_dropShadow" result="shape"/>
    </filter>
    <linearGradient id="paint0_linear" x1="0" y1="0" x2="1024" y2="1024" gradientUnits="userSpaceOnUse">
      <stop stop-color="#2563EB"/>
      <stop offset="1" stop-color="#7C3AED"/>
    </linearGradient>
  </defs>
</svg>
